<?xml version="1.0" encoding="UTF-8"?>
<svg id="Capa_1" data-name="Capa 1" xmlns="http://www.w3.org/2000/svg" viewBox="0 0 405.77 92.15">
  <defs>
    <style>
      .cls-1 {
        fill: #fff;
      }

      .cls-2 {
        fill: #fcb514;
      }
    </style>
  </defs>
  <g>
    <path class="cls-1" d="M20.6,78.5c.91,4.23,1.69,8.43,2.36,12.65,.14,.9-.12,1-.9,.98-2.12-.05-4.25-.08-6.36,.01-.98,.05-1.21-.34-1.34-1.19-.99-6.79-2.52-13.47-4.45-20.05-1.31-4.47-2.79-8.88-4.55-13.19-.29-.72-.27-1.11,.44-1.58,1.83-1.21,3.61-2.5,5.35-3.84,.72-.56,.98-.52,1.32,.34,2.1,5.3,4.05,10.64,5.57,16.13,.27,.97,.69,1.21,1.66,1.21,18.63-.03,37.25-.03,55.88,0,1.06,0,1.43-.35,1.7-1.31,1.53-5.45,3.46-10.76,5.55-16.02,.32-.8,.52-1,1.31-.39,1.79,1.4,3.67,2.68,5.53,3.98,.49,.34,.59,.63,.36,1.21-4.16,10.44-7.1,21.23-8.94,32.31-.39,2.34-.42,2.33-2.84,2.33-1.77,0-3.55-.02-5.32,0-.56,0-.69-.11-.61-.72,.6-4.08,1.36-8.13,2.23-12.15,.14-.64,.12-.85-.62-.85-17.66,.02-35.33,.02-52.99,.02-.07,0-.15,.03-.34,.08Z"/>
    <path class="cls-1" d="M3.54,52.71c-.4-.05-.37-.39-.48-.61-.96-2.06-1.85-4.14-2.86-6.18-.38-.76-.21-1.1,.43-1.57,5.6-4.04,11.02-8.3,16.27-12.78C27.68,22.34,37.44,12.11,46.48,1.19c.17-.21,.37-.4,.51-.63,.51-.9,.88-.58,1.39,.05,3.12,3.83,6.36,7.54,9.68,11.2,11.01,12.11,23.22,22.88,36.49,32.45,.77,.56,.93,.96,.48,1.84-.97,1.88-1.84,3.81-2.66,5.76-.34,.83-.56,.93-1.32,.39-7.7-5.48-15.11-11.33-22.15-17.63-7.22-6.46-14.04-13.32-20.37-20.66-.66-.77-.98-.9-1.73-.04-12.55,14.5-26.78,27.16-42.43,38.22-.28,.2-.56,.4-.83,.58Z"/>
    <path class="cls-2" d="M47.56,67.93c-3.08,0-6.17-.02-9.25,.02-.74,0-1.05-.13-1.14-.97-.69-6.43-1.45-12.86-2.17-19.28-.11-.97,.03-1.93,.25-2.87,.48-1.96,1.89-3.11,4.03-3.42,5.57-.8,11.13-.8,16.69,0,3.13,.44,4.72,2.77,4.32,6.47-.21,1.91-.41,3.83-.63,5.74-.51,4.44-1.06,8.87-1.51,13.31-.09,.9-.44,1.03-1.22,1.02-3.12-.04-6.24-.02-9.37-.02Z"/>
    <path class="cls-2" d="M27.47,67.93c-2.24,0-4.47-.02-6.71,.01-.59,0-.89-.17-1.05-.76-1.53-5.29-3.37-10.48-5.49-15.56-.26-.63-.05-.9,.44-1.2,3.72-2.28,7.6-4.24,11.7-5.72,3.33-1.2,6.2,.54,6.63,4.07,.69,5.66,1.3,11.32,1.91,16.98,.24,2.17,.2,2.17-2,2.17-1.81,0-3.62,0-5.43,0Z"/>
    <path class="cls-2" d="M67.78,67.92c-2.27,0-4.55-.02-6.82,.01-.68,.01-.84-.2-.76-.85,.71-6.04,1.37-12.09,2.08-18.13,.45-3.79,3.31-5.49,6.92-4.15,3.95,1.46,7.68,3.35,11.29,5.52,.73,.44,.81,.81,.49,1.56-2.07,4.94-3.84,9.98-5.34,15.12-.21,.72-.52,.96-1.27,.94-2.2-.05-4.39-.02-6.59-.02h0Z"/>
  </g>
  <g>
    <path class="cls-1" d="M160.36,17.26l-10.13,31.22h-9.46l-5.98-19-6.24,19h-9.46l-10.13-31.22h9.1l6.29,19.94,6.6-19.94h8.12l6.29,20.12,6.56-20.12h8.43Z"/>
    <path class="cls-1" d="M169.97,47.01c-2.63-1.4-4.7-3.33-6.2-5.8-1.5-2.47-2.25-5.25-2.25-8.34s.75-5.87,2.25-8.34c1.5-2.47,3.57-4.4,6.2-5.8,2.63-1.4,5.6-2.1,8.9-2.1s6.27,.7,8.9,2.1c2.63,1.4,4.7,3.33,6.2,5.8,1.5,2.47,2.25,5.25,2.25,8.34s-.75,5.87-2.25,8.34-3.57,4.4-6.2,5.8c-2.63,1.4-5.6,2.1-8.9,2.1s-6.27-.7-8.9-2.1Zm13.18-6.33c1.28-.74,2.29-1.79,3.03-3.14,.74-1.35,1.11-2.91,1.11-4.66s-.37-3.31-1.11-4.66c-.74-1.35-1.76-2.4-3.03-3.15-1.28-.74-2.71-1.12-4.28-1.12s-3,.37-4.28,1.12c-1.28,.74-2.29,1.79-3.03,3.15-.74,1.35-1.12,2.91-1.12,4.66s.37,3.31,1.12,4.66c.74,1.35,1.75,2.4,3.03,3.14,1.28,.74,2.71,1.12,4.28,1.12s3-.37,4.28-1.12Z"/>
    <path class="cls-1" d="M207.71,47.01c-2.63-1.4-4.7-3.33-6.2-5.8-1.5-2.47-2.25-5.25-2.25-8.34s.75-5.87,2.25-8.34c1.5-2.47,3.57-4.4,6.2-5.8,2.63-1.4,5.6-2.1,8.9-2.1s6.27,.7,8.9,2.1c2.63,1.4,4.7,3.33,6.2,5.8,1.5,2.47,2.25,5.25,2.25,8.34s-.75,5.87-2.25,8.34-3.57,4.4-6.2,5.8c-2.63,1.4-5.6,2.1-8.9,2.1s-6.27-.7-8.9-2.1Zm13.18-6.33c1.28-.74,2.29-1.79,3.03-3.14,.74-1.35,1.12-2.91,1.12-4.66s-.37-3.31-1.12-4.66c-.74-1.35-1.75-2.4-3.03-3.15-1.28-.74-2.71-1.12-4.28-1.12s-3,.37-4.28,1.12c-1.28,.74-2.29,1.79-3.03,3.15s-1.12,2.91-1.12,4.66,.37,3.31,1.12,4.66c.74,1.35,1.75,2.4,3.03,3.14,1.28,.74,2.71,1.12,4.28,1.12s3-.37,4.28-1.12Z"/>
    <path class="cls-1" d="M238.59,17.26h14.76c3.42,0,6.45,.64,9.1,1.92,2.65,1.28,4.7,3.09,6.16,5.44s2.19,5.1,2.19,8.25-.73,5.9-2.19,8.25c-1.46,2.35-3.51,4.16-6.16,5.44-2.65,1.28-5.68,1.92-9.1,1.92h-14.76V17.26Zm14.41,24.18c2.68,0,4.82-.76,6.45-2.27,1.62-1.52,2.43-3.61,2.43-6.29s-.81-4.77-2.43-6.29c-1.62-1.52-3.77-2.27-6.45-2.27h-5.58v17.13h5.58Z"/>
    <path class="cls-1" d="M279.34,47.63c-2.13-.74-3.77-1.72-4.93-2.94l1.29-2.54c1.13,1.13,2.63,2.04,4.51,2.74,1.87,.7,3.81,1.05,5.8,1.05,2.79,0,4.89-.51,6.29-1.54,1.4-1.03,2.1-2.36,2.1-3.99,0-1.25-.38-2.24-1.14-2.99-.76-.74-1.69-1.32-2.79-1.72-1.1-.4-2.63-.84-4.59-1.32-2.35-.59-4.22-1.17-5.62-1.72-1.4-.55-2.59-1.39-3.59-2.52-1-1.13-1.49-2.66-1.49-4.59,0-1.58,.42-3.01,1.25-4.3,.83-1.29,2.11-2.33,3.84-3.1,1.72-.77,3.87-1.16,6.42-1.16,1.78,0,3.53,.25,5.24,.74,1.71,.49,3.19,1.17,4.44,2.03l-1.12,2.63c-1.31-.86-2.71-1.51-4.19-1.94-1.49-.43-2.94-.65-4.37-.65-2.74,0-4.8,.53-6.18,1.58-1.38,1.06-2.07,2.42-2.07,4.08,0,1.25,.38,2.25,1.14,3.01,.76,.76,1.71,1.34,2.86,1.74,1.14,.4,2.68,.84,4.62,1.32,2.29,.57,4.14,1.12,5.55,1.67,1.41,.55,2.61,1.38,3.59,2.5,.98,1.11,1.47,2.62,1.47,4.53,0,1.58-.42,3.01-1.27,4.3-.85,1.29-2.15,2.32-3.9,3.08-1.76,.76-3.91,1.14-6.47,1.14-2.32,0-4.54-.37-6.67-1.12Z"/>
    <path class="cls-1" d="M310.45,20.11h-10.97v-2.85h25.25v2.85h-10.97v28.37h-3.3V20.11Z"/>
    <path class="cls-1" d="M340.47,37.69v10.79h-3.26v-10.79l-12.49-20.43h3.52l10.71,17.53,10.71-17.53h3.3l-12.49,20.43Z"/>
    <path class="cls-1" d="M357.42,17.26h3.3v28.37h17.49v2.85h-20.79V17.26Z"/>
    <path class="cls-1" d="M405.77,45.63v2.85h-22.08V17.26h21.41v2.85h-18.11v11.11h16.15v2.81h-16.15v11.6h18.78Z"/>
  </g>
  <g>
    <path class="cls-1" d="M139.31,63.23v13.33h-1.95v-13.33h-4.24v-1.87h10.44v1.87h-4.24Z"/>
    <path class="cls-1" d="M151.79,76.55h-1.95v-15.19h1.95v15.19Z"/>
    <path class="cls-1" d="M167.96,61.36v1.87h-6.92v4.82h6.24v1.82h-6.24v4.82h6.92v1.87h-8.87v-15.19h8.87Z"/>
    <path class="cls-1" d="M176.79,76.55h-1.95v-15.19h2.38l7.38,11.82h.08l-.08-2.93v-8.89h1.95v15.19h-2.04l-7.72-12.39h-.08l.08,2.93v9.46Z"/>
    <path class="cls-1" d="M193.85,76.55v-15.19h4.65c2.32,0,4.18,.7,5.59,2.1,1.41,1.4,2.11,3.23,2.11,5.5s-.7,4.11-2.11,5.51c-1.41,1.39-3.27,2.09-5.59,2.09h-4.65Zm1.95-13.33v11.46h2.69c1.77,0,3.16-.51,4.18-1.52,1.02-1.01,1.53-2.42,1.53-4.21s-.51-3.18-1.53-4.2-2.41-1.53-4.18-1.53h-2.69Z"/>
    <path class="cls-1" d="M213.01,76.55h-2.16l5.73-15.19h2.21l5.73,15.19h-2.17l-1.46-4.12h-6.39l-1.49,4.12Zm4.63-12.8l-2.48,6.85h5.05l-2.48-6.85h-.08Z"/>
    <path class="cls-1" d="M239.45,76.55v-15.19h4.65c2.32,0,4.18,.7,5.59,2.1,1.41,1.4,2.11,3.23,2.11,5.5s-.7,4.11-2.11,5.51c-1.41,1.39-3.27,2.09-5.59,2.09h-4.65Zm1.95-13.33v11.46h2.69c1.77,0,3.16-.51,4.18-1.52,1.02-1.01,1.53-2.42,1.53-4.21s-.51-3.18-1.53-4.2-2.41-1.53-4.18-1.53h-2.69Z"/>
    <path class="cls-1" d="M267.23,61.36v1.87h-6.92v4.82h6.24v1.82h-6.24v4.82h6.92v1.87h-8.87v-15.19h8.87Z"/>
    <path class="cls-1" d="M284.97,76.55h-1.95v-15.19h1.95l5.28,9.25h.08l5.28-9.25h1.95v15.19h-1.95v-9.02l.08-2.55h-.08l-4.75,8.34h-1.15l-4.75-8.34h-.08l.08,2.55v9.02Z"/>
    <path class="cls-1" d="M310.16,76.89c-1.68,0-3.04-.55-4.07-1.65-1.03-1.09-1.55-2.53-1.55-4.33v-9.55h1.95v9.63c0,1.25,.33,2.23,.98,2.95,.65,.72,1.55,1.08,2.69,1.08s2.04-.36,2.7-1.08c.65-.72,.98-1.7,.98-2.95v-9.63h1.95v9.55c0,1.84-.51,3.3-1.53,4.37-1.02,1.08-2.38,1.61-4.1,1.61Z"/>
    <path class="cls-1" d="M331.61,61.36v1.87h-6.92v4.82h6.24v1.82h-6.24v4.82h6.92v1.87h-8.87v-15.19h8.87Z"/>
    <path class="cls-1" d="M338.48,76.55v-15.19h5.5c1.2,0,2.24,.4,3.1,1.19,.86,.78,1.29,1.76,1.29,2.95,0,1.5-.69,2.55-2.06,3.16v.08c.78,.25,1.4,.7,1.87,1.33,.47,.63,.7,1.35,.7,2.15,0,1.25-.45,2.28-1.36,3.1-.88,.82-1.96,1.23-3.25,1.23h-5.79Zm1.95-13.33v4.65h3.54c.69,0,1.27-.23,1.74-.7,.47-.48,.7-1.03,.7-1.63s-.23-1.13-.68-1.61c-.45-.47-1.01-.7-1.68-.7h-3.63Zm0,6.47v4.99h3.93c.71,0,1.31-.25,1.8-.74,.48-.5,.72-1.08,.72-1.76s-.25-1.24-.74-1.74-1.12-.74-1.87-.74h-3.84Z"/>
    <path class="cls-1" d="M363.86,76.55h-8.53v-15.19h1.95v13.33h6.58v1.87Z"/>
    <path class="cls-1" d="M379.02,61.36v1.87h-6.92v4.82h6.24v1.82h-6.24v4.82h6.92v1.87h-8.87v-15.19h8.87Z"/>
    <path class="cls-1" d="M395.27,72.5c0,1.33-.49,2.4-1.46,3.2-.99,.79-2.19,1.19-3.61,1.19-1.26,0-2.37-.37-3.33-1.1-.96-.74-1.63-1.74-1.99-3.01l1.87-.76c.13,.45,.3,.86,.53,1.23,.23,.37,.49,.68,.8,.94,.3,.26,.64,.47,1.01,.62,.37,.15,.76,.22,1.17,.22,.89,0,1.62-.23,2.19-.69,.57-.46,.85-1.07,.85-1.84,0-.64-.23-1.18-.7-1.63-.44-.44-1.26-.86-2.46-1.27-1.22-.44-1.97-.74-2.27-.89-1.61-.82-2.42-2.03-2.42-3.63,0-1.12,.45-2.07,1.34-2.86,.91-.79,2.02-1.19,3.33-1.19,1.16,0,2.16,.3,3.01,.89,.85,.58,1.41,1.31,1.7,2.19l-1.83,.76c-.17-.57-.51-1.04-1.01-1.41-.5-.37-1.11-.56-1.84-.56-.76,0-1.41,.21-1.93,.64-.52,.4-.79,.91-.79,1.55,0,.52,.21,.98,.62,1.36,.45,.38,1.44,.83,2.95,1.36,1.54,.52,2.64,1.16,3.3,1.92,.66,.76,.99,1.69,.99,2.79Z"/>
  </g>
</svg>